<svg xmlns="http://www.w3.org/2000/svg" version="1.1"
    xmlns:xlink="http://www.w3.org/1999/xlink"
    xmlns:svgjs="http://svgjs.dev/svgjs" width="1440" height="560" preserveAspectRatio="none" viewBox="0 0 1440 560">
    <g mask="url(&quot;#SvgjsMask1468&quot;)" fill="none">
        <rect width="1440" height="560" x="0" y="0" fill="url(&quot;#SvgjsLinearGradient1469&quot;)"></rect>
        <path d="M1440 0L799.39 0L1440 242.14z" fill="rgba(255, 255, 255, .1)"></path>
        <path d="M799.39 0L1440 242.14L1440 259.61L405.94 0z" fill="rgba(255, 255, 255, .075)"></path>
        <path d="M405.94000000000005 0L1440 259.61L1440 421.05L247.81000000000006 0z" fill="rgba(255, 255, 255, .05)"></path>
        <path d="M247.80999999999995 0L1440 421.05L1440 510.73L167.20999999999995 0z" fill="rgba(255, 255, 255, .025)"></path>
        <path d="M0 560L482.17 560L0 353.15999999999997z" fill="rgba(0, 0, 0, .1)"></path>
        <path d="M0 353.15999999999997L482.17 560L549.28 560L0 328.18999999999994z" fill="rgba(0, 0, 0, .075)"></path>
        <path d="M0 328.19L549.28 560L1020.92 560L0 173.07999999999998z" fill="rgba(0, 0, 0, .05)"></path>
        <path d="M0 173.07999999999998L1020.92 560L1301.33 560L0 54.499999999999986z" fill="rgba(0, 0, 0, .025)"></path>
    </g>
    <defs>
        <mask id="SvgjsMask1468">
            <rect width="1440" height="560" fill="#ffffff"></rect>
        </mask>
        <linearGradient x1="15.28%" y1="-39.29%" x2="84.72%" y2="139.29%" gradientUnits="userSpaceOnUse" id="SvgjsLinearGradient1469">
            <stop stop-color="rgba(22, 69, 187, 1)" offset="0"></stop>
            <stop stop-color="rgba(188, 31, 0, 1)" offset="1"></stop>
        </linearGradient>
    </defs>
</svg>